<?xml version="1.0" standalone="no"?>
<!DOCTYPE svg PUBLIC "-//W3C//DTD SVG 20010904//EN"
 "http://www.w3.org/TR/2001/REC-SVG-20010904/DTD/svg10.dtd">
<svg version="1.0" xmlns="http://www.w3.org/2000/svg"
 width="300.000000pt" height="131.000000pt" viewBox="0 0 300.000000 131.000000"
 preserveAspectRatio="xMidYMid meet">
<metadata>
Created by potrace 1.10, written by Peter Selinger 2001-2011
</metadata>
<g transform="translate(0.000000,131.000000) scale(0.100000,-0.100000)"
fill="#FFFADE" stroke="none">
<path d="M992 978 l-74 -10 28 -29 28 -29 -20 -22 c-11 -13 -57 -64 -102 -114
l-82 -92 60 -52 c33 -29 60 -55 60 -59 0 -4 -47 -60 -105 -125 -58 -64 -105
-121 -105 -125 0 -12 48 -53 57 -50 8 4 227 247 262 292 12 15 7 23 -48 75
l-61 57 74 80 74 80 24 -22 c14 -13 26 -23 29 -23 2 0 5 41 7 90 3 82 2 90
-15 89 -10 -1 -51 -6 -91 -11z m81 -30 c-2 -5 -3 -24 -3 -43 0 -23 -4 -35 -12
-33 -27 5 -55 -16 -116 -87 -34 -40 -65 -80 -68 -88 -3 -9 15 -35 50 -68 l56
-54 -111 -125 c-146 -166 -133 -154 -147 -137 -9 11 -7 19 11 37 83 90 177
206 177 220 0 18 -19 40 -69 83 -30 25 -32 30 -19 45 8 9 46 54 85 99 81 92
98 119 83 128 -18 11 -10 24 18 28 38 6 67 3 65 -5z"/>
<path d="M1260 693 c-87 -32 -124 -237 -64 -355 39 -77 102 -90 153 -33 40 46
54 103 49 200 -5 94 -32 156 -78 180 -31 16 -36 17 -60 8z m55 -32 c14 -6 8
-8 -22 -7 -23 0 -39 4 -37 8 6 10 33 9 59 -1z m14 -52 c24 -26 35 -89 29 -165
-8 -98 -68 -143 -118 -89 -23 25 -25 34 -25 124 0 76 4 103 18 124 22 34 67
37 96 6z m-27 -298 c11 6 18 6 18 0 0 -19 -41 -23 -65 -7 -33 22 -32 28 2 11
18 -10 32 -11 45 -4z"/>
<path d="M1968 693 c-47 -12 -73 -124 -43 -186 9 -20 25 -39 34 -42 55 -17 81
-93 45 -129 -20 -21 -26 -20 -58 5 -30 23 -31 23 -40 -7 -8 -28 34 -64 74 -64
31 0 53 21 69 69 25 77 7 139 -55 182 -37 25 -44 35 -44 62 0 54 35 74 71 41
17 -15 19 -14 25 11 10 39 -31 70 -78 58z m52 -227 c11 -18 10 -18 -21 2 -19
11 -40 31 -48 42 -14 20 -13 20 21 -2 20 -13 41 -32 48 -42z"/>
<path d="M975 665 c0 -22 4 -25 38 -25 l37 0 0 -185 c0 -178 1 -185 20 -185
19 0 20 7 20 185 l0 185 35 0 c31 0 35 3 35 25 0 25 0 25 -92 25 -92 0 -93 0
-93 -25z m112 -12 c-16 -16 -18 -16 -34 0 -16 16 -15 17 17 17 32 0 33 -1 17
-17z"/>
<path d="M1440 481 c0 -208 0 -211 21 -211 21 0 21 3 17 145 -2 80 -1 145 2
145 3 0 33 -65 67 -143 88 -203 93 -200 93 62 0 207 0 211 -21 211 -20 0 -21
-3 -17 -144 1 -79 1 -142 -2 -140 -3 3 -32 67 -66 142 -89 199 -94 195 -94
-67z m50 107 c0 -20 -18 -5 -23 19 -5 26 -4 26 9 8 8 -10 14 -22 14 -27z m119
-225 c0 -25 -1 -25 -8 -8 -5 11 -7 23 -4 28 8 14 13 7 12 -20z"/>
<path d="M1690 480 c0 -203 1 -210 20 -210 19 0 20 7 20 96 0 85 2 95 17 92
12 -2 32 -36 58 -96 33 -76 44 -92 62 -92 21 0 21 3 -19 98 -22 53 -44 102
-49 108 -6 7 7 48 35 110 35 79 41 100 29 102 -22 5 -28 -4 -67 -93 -49 -113
-66 -112 -66 4 0 84 -1 91 -20 91 -19 0 -20 -7 -20 -210z"/>
</g>
</svg>
