<svg width="1102" height="316" viewBox="0 0 1102 316" fill="none" xmlns="http://www.w3.org/2000/svg">
<path d="M362.526 110.791H326.613V241.057H297.839V110.791H261.926V85.5852H362.526V110.791ZM462.292 129.974V241.057H437.087L436.529 226.67C433.257 231.8 429.205 235.927 424.372 239.05C419.614 242.172 413.517 243.734 406.081 243.734C395.077 243.734 386.861 240.239 381.433 233.25C376.006 226.261 373.292 216.298 373.292 203.36V129.974H401.174V200.907C401.174 207.375 402.327 212.468 404.632 216.186C407.011 219.829 410.766 221.651 415.896 221.651C419.391 221.651 422.513 220.796 425.264 219.086C428.09 217.301 430.32 214.848 431.956 211.725C433.592 208.528 434.41 204.922 434.41 200.907V129.974H462.292ZM494.183 129.974H519.388L520.727 149.603C523.106 143.878 526.861 138.971 531.991 134.881C537.121 130.717 544.371 128.636 553.739 128.636C557.457 128.636 560.877 129.23 564 130.42L557.754 159.641C556.49 158.377 554.966 157.484 553.182 156.964C551.472 156.369 549.352 156.072 546.824 156.072C541.62 156.072 537.121 157.187 533.329 159.418C529.612 161.574 526.786 164.102 524.853 167.002C522.994 169.901 522.065 172.281 522.065 174.14V241.057H494.183V129.974ZM579.578 82.2393H610.806V111.906H579.578V82.2393ZM580.693 129.974H609.69V241.057H580.693V129.974ZM702.098 127.297C713.176 127.297 721.504 130.829 727.08 137.892C732.731 144.882 735.557 154.808 735.557 167.671V241.057H707.005V170.124C707.005 163.804 705.667 158.786 702.99 155.068C700.313 151.276 696.373 149.38 691.168 149.38C687.673 149.38 684.402 150.272 681.353 152.057C678.379 153.841 676 156.332 674.215 159.529C672.431 162.652 671.539 166.184 671.539 170.124V241.057H642.987V129.974H668.862L669.42 144.584C677.078 133.06 687.971 127.297 702.098 127.297ZM782.977 260.24C789.892 264.553 797.625 266.709 806.176 266.709C815.767 266.709 822.905 264.218 827.589 259.236C832.348 254.255 834.727 246.411 834.727 235.704V218.305C832.868 225.146 829.634 230.871 825.024 235.481C820.414 240.091 813.983 242.396 805.729 242.396C796.956 242.396 789.186 240.425 782.42 236.484C775.728 232.544 770.412 226.335 766.471 217.859C762.605 209.383 760.672 198.676 760.672 185.739C760.672 172.578 762.605 161.648 766.471 152.949C770.337 144.175 775.617 137.707 782.308 133.543C789 129.379 796.584 127.297 805.06 127.297C810.86 127.297 815.841 128.338 820.005 130.42C824.243 132.502 827.552 135.216 829.931 138.562C832.385 141.833 833.984 145.365 834.727 149.157L837.85 129.974H859.71V235.704C859.71 247.154 857.777 257.006 853.91 265.259C850.044 273.587 844.319 279.944 836.735 284.331C829.151 288.792 819.857 291.022 808.852 291.022C800.748 291.022 793.387 290.019 786.769 288.011C780.226 286.078 774.799 283.81 770.486 281.208L782.977 260.24ZM811.306 220.536C817.849 220.536 822.942 217.487 826.585 211.39C830.229 205.219 832.05 196.52 832.05 185.292C832.05 174.288 830.377 165.626 827.032 159.306C823.76 152.986 818.816 149.826 812.198 149.826C808.109 149.826 804.354 151.016 800.934 153.395C797.513 155.774 794.725 159.641 792.569 164.994C790.487 170.273 789.446 177.114 789.446 185.516C789.446 197.115 791.417 205.851 795.357 211.725C799.372 217.599 804.689 220.536 811.306 220.536Z" fill="#252525"/>
<path d="M970.19 144.204L979.584 175H994.615L956.875 56.0644H944.214L905.821 175H920.933L930.491 144.204H970.19ZM934.575 131.053L950.504 79.4267L966.188 131.053H934.575ZM1013.89 56.0644V69.2159H1041.75V161.93H1013.89V175H1085.78V161.93H1057.27V69.2159H1085.78V56.0644H1013.89Z" fill="#4332ED"/>
<rect x="125.532" y="61.7391" width="58.6463" height="40.8534" transform="rotate(45 125.532 61.7391)" fill="#9C93FA"/>
<rect x="125.471" y="172.037" width="58.6463" height="40.8534" transform="rotate(135 125.471 172.037)" fill="#9C93FA"/>
<rect x="167.294" y="130.214" width="58.6463" height="40.8534" transform="rotate(135 167.294 130.214)" fill="#9C93FA"/>
<rect x="157.635" y="93.8252" width="69.9372" height="40.8652" transform="rotate(45 157.635 93.8252)" fill="#9C93FA"/>
<circle cx="191.764" cy="156.873" r="20.4859" transform="rotate(135 191.764 156.873)" fill="#4332ED"/>
<circle cx="150.376" cy="198.26" r="20.4859" transform="rotate(135 150.376 198.26)" fill="#4332ED"/>
<circle cx="108.988" cy="239.649" r="20.4859" transform="rotate(135 108.988 239.649)" fill="#4332ED"/>
<circle cx="111.747" cy="76.8564" r="20.4859" transform="rotate(135 111.747 76.8564)" fill="#4332ED"/>
<circle cx="70.3598" cy="118.244" r="20.4859" transform="rotate(135 70.3598 118.244)" fill="#4332ED"/>
<circle cx="28.9715" cy="159.632" r="20.4859" transform="rotate(135 28.9715 159.632)" fill="#4332ED"/>
<circle cx="151.756" cy="116.865" r="20.4859" transform="rotate(135 151.756 116.865)" fill="#4332ED"/>
<circle cx="110.368" cy="158.252" r="20.4859" transform="rotate(135 110.368 158.252)" fill="#4332ED"/>
<circle cx="68.9799" cy="199.64" r="20.4859" transform="rotate(135 68.9799 199.64)" fill="#4332ED"/>
</svg>
